<?xml version="1.0" encoding="utf-8"?>
<!-- Generator: Adobe Illustrator 16.0.0, SVG Export Plug-In . SVG Version: 6.00 Build 0)  -->
<!DOCTYPE svg PUBLIC "-//W3C//DTD SVG 1.1//EN" "http://www.w3.org/Graphics/SVG/1.1/DTD/svg11.dtd">
<svg version="1.1" id="Capa_1" xmlns="http://www.w3.org/2000/svg" xmlns:xlink="http://www.w3.org/1999/xlink" x="0px" y="0px"
	 width="35px" height="35px" viewBox="0 0 35 35" enable-background="new 0 0 35 35" xml:space="preserve">
<g>
	<path d="M10.155,22.182c-0.733,0-1.392,0.296-1.876,0.778v-0.001C7.796,23.442,7.5,24.1,7.5,24.831c0,0.73,0.296,1.386,0.779,1.868
		c0.484,0.481,1.143,0.776,1.876,0.776c0.734,0,1.396-0.294,1.878-0.775l0.002-0.001c0.482-0.482,0.777-1.138,0.779-1.868
		c-0.002-0.731-0.297-1.387-0.781-1.871C11.549,22.479,10.889,22.182,10.155,22.182z"/>
	<path d="M8.279,26.7C8.279,26.7,8.279,26.7,8.279,26.7C8.278,26.699,8.278,26.699,8.279,26.7L8.279,26.7z"/>
	<path d="M12.033,22.959L12.033,22.959C12.034,22.96,12.034,22.96,12.033,22.959L12.033,22.959z"/>
	<path d="M21.635,13.368C18.013,9.745,13.02,7.502,7.509,7.5v3.818c8.912,0.006,16.156,7.261,16.163,16.182H27.5
		C27.497,21.986,25.257,16.991,21.635,13.368z"/>
	<path d="M7.502,14.3v3.82c2.493,0.001,4.852,0.98,6.616,2.748c1.765,1.761,2.74,4.123,2.744,6.625h0.001V27.5h3.834
		c-0.003-3.638-1.482-6.933-3.873-9.325C14.434,15.783,11.14,14.303,7.502,14.3z"/>
</g>
</svg>
