<?xml version="1.0" encoding="utf-8"?>
<!-- Generator: Adobe Illustrator 16.0.0, SVG Export Plug-In . SVG Version: 6.00 Build 0)  -->
<!DOCTYPE svg PUBLIC "-//W3C//DTD SVG 1.1//EN" "http://www.w3.org/Graphics/SVG/1.1/DTD/svg11.dtd">
<svg version="1.1" id="Capa_1" xmlns="http://www.w3.org/2000/svg" xmlns:xlink="http://www.w3.org/1999/xlink" x="0px" y="0px"
	 width="35px" height="35px" viewBox="0 0 35 35" enable-background="new 0 0 35 35" xml:space="preserve">
<path d="M27.5,11.297c-0.734,0.326-1.524,0.547-2.355,0.646c0.848-0.508,1.499-1.312,1.805-2.271
	c-0.793,0.471-1.672,0.812-2.605,0.996c-0.75-0.797-1.816-1.295-2.996-1.295c-2.266,0-4.104,1.838-4.104,4.104
	c0,0.32,0.038,0.633,0.108,0.936c-3.411-0.172-6.435-1.805-8.458-4.289c-0.354,0.607-0.556,1.311-0.556,2.064
	c0,1.424,0.725,2.68,1.825,3.415c-0.672-0.021-1.305-0.206-1.858-0.514c0,0.018,0,0.035,0,0.053c0,1.987,1.414,3.646,3.291,4.022
	c-0.344,0.093-0.706,0.144-1.081,0.144c-0.264,0-0.521-0.026-0.771-0.074c0.522,1.632,2.037,2.819,3.833,2.851
	c-1.404,1.102-3.174,1.758-5.097,1.758c-0.331,0-0.657-0.02-0.979-0.059c1.817,1.165,3.973,1.844,6.291,1.844
	c7.548,0,11.674-6.253,11.674-11.676c0-0.178-0.001-0.355-0.012-0.531C26.257,12.842,26.952,12.119,27.5,11.297z"/>
</svg>
